<?xml version="1.0" encoding="iso-8859-1"?>
<!-- Uploaded to: SVG Repo, www.svgrepo.com, Generator: SVG Repo Mixer Tools -->
<svg version="1.1" id="Layer_1" xmlns="http://www.w3.org/2000/svg" xmlns:xlink="http://www.w3.org/1999/xlink" 
	 viewBox="0 0 512 512" xml:space="preserve">
<circle style="fill:#B5F1F4;" cx="256" cy="256" r="256"/>
<path style="fill:#4CDBC4;" d="M511.598,270.252L354.251,113.435l-133.877-24.08l-88.495,88.495L92.313,308.889l199.913,200.547
	C411.85,492.491,504.868,392.873,511.598,270.252z"/>
<g>
	<path style="fill:#2B3B4E;" d="M329.266,385.293h-44.822V366.33h44.822c17.11,0,31.03-13.921,31.03-31.03v-44.822h18.963V335.3
		C379.259,362.867,356.833,385.293,329.266,385.293z"/>
	<path style="fill:#2B3B4E;" d="M390.465,290.478h-41.374v-85.333c0-51.331-41.76-93.091-93.091-93.091s-93.091,41.76-93.091,93.091
		v85.333h-41.374v-85.333c0-74.143,60.321-134.465,134.465-134.465s134.465,60.321,134.465,134.465V290.478z"/>
</g>
<path style="fill:#324A5E;" d="M167.65,318.923h-51.141c-18.884,0-34.19-15.308-34.19-34.19v-45.396
	c-0.002-18.884,15.307-34.192,34.19-34.192h51.141V318.923z"/>
<path style="fill:#2B3B4E;" d="M82.316,262.322v22.411c0,18.882,15.308,34.19,34.192,34.19h51.141v-56.601L82.316,262.322
	L82.316,262.322z"/>
<rect x="142.222" y="205.145" style="fill:#FC6F58;" width="28.444" height="113.778"/>
<path style="fill:#324A5E;" d="M344.35,205.145h51.143c18.884,0,34.192,15.308,34.192,34.192v45.396
	c0,18.884-15.308,34.19-34.19,34.19h-51.143L344.35,205.145z"/>
<path style="fill:#2B3B4E;" d="M344.35,262.322v56.601h51.141c18.884,0,34.192-15.308,34.192-34.19v-22.411L344.35,262.322
	L344.35,262.322z"/>
<rect x="341.333" y="205.145" style="fill:#FC6F58;" width="28.444" height="113.778"/>
<g>
	<rect x="142.222" y="262.327" style="fill:#F1543F;" width="28.444" height="56.601"/>
	<rect x="341.333" y="262.327" style="fill:#F1543F;" width="28.444" height="56.601"/>
</g>
<path style="fill:#FC6F58;" d="M225.566,396.498h53.97c8.661,0,15.681-7.021,15.681-15.681v-10.011
	c0-8.661-7.021-15.681-15.681-15.681h-53.97c-8.661,0-15.681,7.021-15.681,15.681v10.011
	C209.886,389.477,216.907,396.498,225.566,396.498z"/>
</svg>