<?xml version="1.0" encoding="iso-8859-1"?>
<!-- Uploaded to: SVG Repo, www.svgrepo.com, Generator: SVG Repo Mixer Tools -->
<svg height="800px" width="800px" version="1.1" id="Layer_1" xmlns="http://www.w3.org/2000/svg" xmlns:xlink="http://www.w3.org/1999/xlink" 
	 viewBox="0 0 512 512" xml:space="preserve">
<circle style="fill:#FFD630;" cx="255.997" cy="256" r="255.997"/>
<path style="fill:#F5BE18;" d="M512,256.863L392.858,137.72l-31.764-21.214h-54.238v16.168l194.824,195.34
	c2.178-7.397,4.013-14.964,5.504-22.647l0.229-1.09c0.344-1.835,0.688-3.669,0.975-5.504l0.172-1.09
	c0.286-1.605,0.516-3.211,0.745-4.816l0.344-2.408c0.172-1.204,0.344-2.466,0.458-3.726l0.344-3.096
	c0.115-0.975,0.229-2.006,0.286-3.039c0.115-1.319,0.229-2.58,0.344-3.898l0.172-2.408c0.115-1.376,0.172-2.752,0.286-4.186
	l0.115-2.236c0.057-1.433,0.115-2.924,0.172-4.358l0.057-1.949c0.057-1.605,0.057-3.211,0.057-4.759v-0.057L512,256.863z
	 M491.302,356.969c-15.365,35.72-38.587,67.253-67.541,92.367l0,0l-1.949,1.663l-0.688,0.573c-1.204,1.032-2.409,2.064-3.669,3.039
	l-0.115,0.057l-2.178,1.777l-2.178,1.72l-2.236,1.72L410.575,460c-1.147,0.86-2.236,1.663-3.383,2.523l-1.491,1.09
	c-1.032,0.745-2.006,1.433-3.039,2.178l-1.892,1.319c-1.09,0.745-2.178,1.491-3.268,2.178l-2.293,1.548l-2.35,1.548
	c-1.032,0.63-2.064,1.319-3.096,1.949l-1.949,1.204c-1.09,0.63-2.178,1.262-3.268,1.892l-2.178,1.262
	c-1.032,0.573-2.064,1.147-3.096,1.72l-2.58,1.433c-1.032,0.573-2.121,1.147-3.153,1.663l-2.178,1.09
	c-1.262,0.63-2.465,1.262-3.726,1.835l-1.72,0.802c-1.262,0.573-2.523,1.204-3.784,1.777l-1.605,0.745
	c-1.319,0.63-2.695,1.204-4.07,1.777l-1.433,0.63c-1.491,0.63-2.982,1.204-4.472,1.835l-1.548,0.573
	c-1.548,0.63-3.153,1.204-4.702,1.777l-1.147,0.401c-1.605,0.573-3.211,1.147-4.816,1.663l-0.918,0.286
	c-1.605,0.516-3.211,1.09-4.816,1.548l-1.204,0.401c-1.605,0.516-3.268,0.975-4.931,1.433l-0.86,0.229
	c-1.777,0.516-3.612,0.975-5.446,1.491l-0.63,0.172c-1.892,0.458-3.784,0.975-5.734,1.376l-0.573,0.115
	c-1.835,0.401-3.669,0.802-5.561,1.204l-0.745,0.172c-1.777,0.344-3.612,0.688-5.446,1.032l-0.688,0.115
	c-1.835,0.344-3.669,0.63-5.561,0.918l-0.745,0.115c-2.006,0.286-3.956,0.573-5.963,0.86h-0.115h-0.057l0,0
	c-2.064,0.286-4.186,0.516-6.25,0.688l-0.344,0.057c-2.006,0.172-3.956,0.401-5.963,0.516l-0.688,0.057
	c-1.949,0.172-3.841,0.286-5.791,0.344l-0.688,0.057c-1.949,0.115-3.898,0.172-5.849,0.229h-0.63
	c-2.121,0.057-4.243,0.057-6.364,0.057h-0.057h-0.057h-0.057h-0.057h-1.777h-0.057h-0.057h-0.057h-0.057h-0.057h-0.057h-0.057
	h-0.057h-0.057h-0.057h-0.057h-0.057h-0.057h-0.057h-0.057h-0.057h-0.057h-0.057h-0.057h-0.057L126.022,385.293L115.93,361.04
	v-54.238h16.168l53.207,53.207l9.518-75.797l-78.95-79.065v-54.238l34.343-34.343h54.238l69.605,69.834l22.934-22.934
	l193.562,193.562L491.302,356.969z"/>
<path style="fill:#FFFFFF;" d="M150.905,116.507h54.238v16.168h-54.238c-4.988,0-9.518,2.064-12.843,5.332
	c-3.268,3.325-5.332,7.855-5.332,12.843v54.238h-16.168V150.85c0-9.46,3.841-18.06,10.091-24.253
	C132.902,120.349,141.502,116.507,150.905,116.507z M306.856,116.507h54.238c9.46,0,18.06,3.841,24.253,10.091
	c6.25,6.25,10.091,14.792,10.091,24.253v54.238H379.27v-54.238c0-4.988-2.064-9.518-5.332-12.843
	c-3.325-3.268-7.855-5.332-12.843-5.332h-54.238v-16.169H306.856z M395.495,306.801v54.238c0,9.46-3.841,18.06-10.091,24.253
	c-6.25,6.25-14.792,10.091-24.253,10.091h-54.238v-16.168h54.238c4.988,0,9.518-2.064,12.843-5.332
	c3.268-3.325,5.332-7.855,5.332-12.843v-54.239H395.495z M205.201,395.441h-54.238c-9.46,0-18.06-3.841-24.253-10.091
	c-6.25-6.25-10.091-14.85-10.091-24.253v-54.238h16.168v54.238c0,4.988,2.064,9.518,5.332,12.843
	c3.325,3.268,7.855,5.332,12.843,5.332H205.2L205.201,395.441L205.201,395.441z"/>
<path style="fill:#E84F4F;" d="M207.896,280.141h3.383l19.723-10.722l3.211-12.557c-4.702-4.759-9.518-12.786-13.99-22.647
	c-0.344,0.057-0.745,0.115-1.09,0.115c-5.217,0-10.377-5.676-11.524-12.671c-0.918-5.446,0.918-10.148,4.243-11.925
	c-4.415-22.475-7.339-56.991,31.362-65.533c23.22-5.103,31.534,12.786,32.509,14.792c14.047-7.912,22.991,3.956,25.285,10.205
	c4.129,11.295,2.81,32.337,0.688,41.625c2.35,2.236,3.497,6.25,2.695,10.779c-1.147,6.88-6.135,12.499-11.295,12.671
	c-4.129,9.117-9.69,16.856-15.308,22.533l3.211,12.557h0.286l19.15,10.722h3.669c25.285,0,45.982,19.952,45.982,44.148v35.777
	h-188.23v-35.777c0-24.31,20.698-44.148,45.982-44.148L207.896,280.141z"/>
</svg>