<?xml version="1.0" encoding="iso-8859-1"?>
<!-- Uploaded to: SVG Repo, www.svgrepo.com, Generator: SVG Repo Mixer Tools -->
<svg height="800px" width="800px" version="1.1" id="Layer_1" xmlns="http://www.w3.org/2000/svg" xmlns:xlink="http://www.w3.org/1999/xlink" 
	 viewBox="0 0 512 512" xml:space="preserve">
<circle style="fill:#D35933;" cx="256" cy="256" r="256"/>
<path style="fill:#B54324;" d="M279.087,510.952c105.539-9.437,192.626-82.908,222.137-181.293L303.852,132.287l-24.723,70.082
	L142.222,374.088L279.087,510.952z"/>
<path style="fill:#386895;" d="M369.778,261.747c0-18.884-15.308-34.19-34.19-34.19H176.414
	c-18.884-0.002-34.192,15.307-34.192,34.19v112.34h227.556V261.747z"/>
<path style="fill:#273B7A;" d="M369.778,261.747c0-18.884-15.308-34.19-34.19-34.19h-80.162v146.532h114.352V261.747z"/>
<circle style="fill:#FFEDB5;" cx="256" cy="184.889" r="71.111"/>
<path style="fill:#FEE187;" d="M256,113.778c-0.193,0-0.383,0.014-0.574,0.014v142.193c0.191,0.002,0.381,0.014,0.574,0.014
	c39.274,0,71.111-31.837,71.111-71.111S295.274,113.778,256,113.778z"/>

</svg>